<svg width="24" height="25" viewBox="0 0 24 25" fill="none" xmlns="http://www.w3.org/2000/svg">
<path fill-rule="evenodd" clip-rule="evenodd" d="M15.707 5.28827C15.8945 5.4758 15.9998 5.73011 15.9998 5.99527C15.9998 6.26043 15.8945 6.51474 15.707 6.70227L9.41403 12.9953L15.707 19.2883C15.8892 19.4769 15.99 19.7295 15.9877 19.9917C15.9854 20.2539 15.8803 20.5047 15.6948 20.6901C15.5094 20.8755 15.2586 20.9807 14.9964 20.9829C14.7342 20.9852 14.4816 20.8844 14.293 20.7023L7.29303 13.7023C7.10556 13.5147 7.00024 13.2604 7.00024 12.9953C7.00024 12.7301 7.10556 12.4758 7.29303 12.2883L14.293 5.28827C14.4806 5.1008 14.7349 4.99548 15 4.99548C15.2652 4.99548 15.5195 5.1008 15.707 5.28827Z" fill="black"/>
</svg>
